<svg width="50" height="50" viewBox="0 0 50 50" version="1.1" xmlns="http://www.w3.org/2000/svg" xmlns:xlink="http://www.w3.org/1999/xlink">
<title>if_77-behance_104426(1)</title>
<desc>Created using Figma</desc>
<g id="Canvas" transform="translate(-1058 2405)">
<g id="if_77-behance_104426(1)">
<g id="Group">
<g id="Vector">
<use xlink:href="#path0_fill" transform="translate(1088.69 -2382.84)" fill="#FFFFFF"/>
</g>
<g id="Vector">
<use xlink:href="#path1_fill" transform="translate(1071.02 -2379.68)" fill="#FFFFFF"/>
</g>
<g id="Vector">
<use xlink:href="#path2_fill" transform="translate(1058 -2405)" fill="#FFFFFF"/>
</g>
<g id="Vector">
<use xlink:href="#path3_fill" transform="translate(1071.02 -2387.43)" fill="#FFFFFF"/>
</g>
</g>
</g>
</g>
<defs>
<path id="path0_fill" d="M 3.615 -3.05176e-08C 0.440998 -3.05176e-08 3.66211e-07 3.168 3.66211e-07 3.168L 6.748 3.168C 6.748 3.168 6.791 -3.05176e-08 3.615 -3.05176e-08Z"/>
<path id="path1_fill" d="M 5.982 1.07654e-05L 3.20435e-07 1.07654e-05L 3.20435e-07 5.49201L 5.296 5.49201C 5.386 5.49201 5.521 5.49401 5.679 5.49201C 6.531 5.47201 8.146 5.22401 8.146 2.82201C 8.146 -0.0289869 5.982 1.07654e-05 5.982 1.07654e-05Z"/>
<path id="path2_fill" d="M 24.625 -1.67847e-07C 11.025 -1.67847e-07 4.95911e-08 11.023 4.95911e-08 24.623C 4.95911e-08 38.223 11.025 49.248 24.625 49.248C 38.223 49.248 49.248 38.223 49.248 24.623C 49.248 11.024 38.222 -1.67847e-07 24.625 -1.67847e-07ZM 29.808 15.13L 38.285 15.13L 38.285 17.66L 29.808 17.66L 29.808 15.13L 29.808 15.13ZM 25.523 28.402C 25.523 34.673 18.998 34.466 18.998 34.466L 13.016 34.466L 12.841 34.466L 8.306 34.466L 8.306 13.92L 12.841 13.92L 13.016 13.92L 18.998 13.92C 22.246 13.92 24.81 15.714 24.81 19.39C 24.81 23.066 21.675 23.3 21.675 23.3C 25.808 23.3 25.523 28.402 25.523 28.402ZM 41.381 28.066L 30.734 28.066C 30.734 31.882 34.349 31.642 34.349 31.642C 37.763 31.642 37.644 29.431 37.644 29.431L 41.261 29.431C 41.261 35.298 34.228 34.896 34.228 34.896C 25.792 34.896 26.335 27.041 26.335 27.041C 26.335 27.041 26.327 19.148 34.228 19.148C 42.545 19.148 41.381 28.066 41.381 28.066Z"/>
<path id="path3_fill" d="M 7.435 2.137C 7.435 -7.15256e-07 5.982 3.35693e-07 5.982 3.35693e-07L 5.212 3.35693e-07L 3.20435e-07 3.35693e-07L 3.20435e-07 4.584L 5.611 4.584C 6.579 4.584 7.435 4.273 7.435 2.137Z"/>
</defs>
</svg>
