<svg xmlns="http://www.w3.org/2000/svg" viewBox="0 0 24 24"><defs><style>.a{fill:#1769ff;}</style></defs><path class="a" d="M6.941,4.5a5.729,5.729,0,0,1,1.921.3,3.691,3.691,0,0,1,1.486.976,4.556,4.556,0,0,1,.96,1.792,9.792,9.792,0,0,1,.34,2.768,7.683,7.683,0,0,1-.507,2.976,4.733,4.733,0,0,1-1.5,1.952,4.033,4.033,0,0,1,2.023,2.192,9.656,9.656,0,0,1,.665,3.777,10.061,10.061,0,0,1-.41,3.088,6,6,0,0,1-1.16,2.16,4.586,4.586,0,0,1-1.671,1.227,4.792,4.792,0,0,1-1.911.406H0V4.514H6.941V4.5ZM16.947,23.965a2.124,2.124,0,0,0,1.895,1.029,1.991,1.991,0,0,0,1.531-.715,3.072,3.072,0,0,0,.78-1.5h2.589a8.747,8.747,0,0,1-1.9,4.4A4.089,4.089,0,0,1,18.759,28.5a4.159,4.159,0,0,1-2.273-.64,5.552,5.552,0,0,1-1.721-1.824,9.9,9.9,0,0,1-1.077-2.832,16.308,16.308,0,0,1-.373-3.632,15.033,15.033,0,0,1,.4-3.568,10.449,10.449,0,0,1,1.12-2.864,6.251,6.251,0,0,1,1.737-1.911,3.7,3.7,0,0,1,2.221-.693,3.568,3.568,0,0,1,2.381.837,6.333,6.333,0,0,1,1.661,2.24,11.919,11.919,0,0,1,.94,3.232,20.436,20.436,0,0,1,.21,3.809H16.3a6.838,6.838,0,0,0,.71,3.3l-.08.048ZM6.7,24.045a2.71,2.71,0,0,0,.906-.149,1.941,1.941,0,0,0,.763-.48,2.339,2.339,0,0,0,.52-.933,5.01,5.01,0,0,0,.19-1.536,4.188,4.188,0,0,0-.64-2.592,2.1,2.1,0,0,0-1.691-.768H3.241v6.481H6.7v-.048ZM20.315,15a1.831,1.831,0,0,0-1.658-.947,1.736,1.736,0,0,0-1.166.381,2.741,2.741,0,0,0-.74.944,4.3,4.3,0,0,0-.392,1.2,8.681,8.681,0,0,0-.135,1.136h4.764a6.259,6.259,0,0,0-.68-2.7v.016ZM6.523,14.019a1.779,1.779,0,0,0,1.426-.659A3.274,3.274,0,0,0,8.5,11.219a4.585,4.585,0,0,0-.18-1.354,2.185,2.185,0,0,0-.5-.819,1.7,1.7,0,0,0-.72-.411,2.828,2.828,0,0,0-.84-.118H3.231v5.5H6.523Zm9.1-7.934h5.97V8.412h-5.97V6.082Z" transform="translate(0 -4.503)"/></svg>
