<svg width="39" height="50" viewBox="0 0 39 50" version="1.1" xmlns="http://www.w3.org/2000/svg" xmlns:xlink="http://www.w3.org/1999/xlink">
<title>behance</title>
<desc>Created using Figma</desc>
<g id="Canvas" transform="translate(-4912 -426)">
<g id="behance">
<g id="Canvas">
<g id="if 77 behance 104426(1)">
<g id="Group">
<g id="Vector">
<g id="Vector">
<use xlink:href="#path0_fill" transform="matrix(1 3.54386e-17 -2.17382e-17 1 4935.92 449.045)"/>
</g>
</g>
<g id="Vector">
<g id="Vector">
<use xlink:href="#path1_fill" transform="matrix(1 3.54386e-17 -2.17382e-17 1 4922.15 452.189)"/>
</g>
</g>
<g id="Vector">
<g id="Vector">
<use xlink:href="#path2_fill" transform="matrix(1 2.77296e-17 -2.77816e-17 1 4912 426.995)"/>
</g>
</g>
<g id="Vector">
<g id="Vector">
<use xlink:href="#path3_fill" transform="matrix(1 3.54386e-17 -2.17382e-17 1 4922.15 444.478)"/>
</g>
</g>
</g>
</g>
</g>
</g>
</g>
<defs>
<path id="path0_fill" d="M 2.81719 -8.86358e-16C 0.343672 -8.86358e-16 -1.92749e-15 3.15224 -1.92749e-15 3.15224L 5.25875 3.15224C 5.25875 3.15224 5.29226 -8.86358e-16 2.81719 -8.86358e-16Z"/>
<path id="path1_fill" d="M 4.6618 1.14683e-05L -5.98659e-15 1.14683e-05L -5.98659e-15 5.46469L 4.1272 5.46469C 4.19734 5.46469 4.30254 5.46668 4.42567 5.46469C 5.08964 5.44479 6.34822 5.19802 6.34822 2.80797C 6.34822 -0.028842 4.6618 1.14683e-05 4.6618 1.14683e-05Z"/>
<path id="path2_fill" d="M 19.1904 -5.59967e-15C 8.59184 -5.59967e-15 7.81988e-16 10.9682 7.81988e-16 24.5005C 7.81988e-16 38.0328 8.59184 49.003 19.1904 49.003C 29.7874 49.003 38.3792 38.0328 38.3792 24.5005C 38.3792 10.9692 29.7866 -5.59967e-15 19.1904 -5.59967e-15ZM 23.2295 15.0547L 29.8357 15.0547L 29.8357 17.5721L 23.2295 17.5721L 23.2295 15.0547ZM 19.8902 28.2607C 19.8902 34.5005 14.8052 34.2945 14.8052 34.2945L 10.1434 34.2945L 10.0071 34.2945L 6.47291 34.2945L 6.47291 13.8507L 10.0071 13.8507L 10.1434 13.8507L 14.8052 13.8507C 17.3364 13.8507 19.3346 15.6358 19.3346 19.2935C 19.3346 22.9512 16.8914 23.1841 16.8914 23.1841C 20.1123 23.1841 19.8902 28.2607 19.8902 28.2607ZM 32.2484 27.9264L 23.9512 27.9264C 23.9512 31.7234 26.7683 31.4846 26.7683 31.4846C 29.4289 31.4846 29.3362 29.2846 29.3362 29.2846L 32.1549 29.2846C 32.1549 35.1224 26.674 34.7224 26.674 34.7224C 20.0998 34.7224 20.523 26.9065 20.523 26.9065C 20.523 26.9065 20.5168 19.0527 26.674 19.0527C 33.1555 19.0527 32.2484 27.9264 32.2484 27.9264Z"/>
<path id="path3_fill" d="M 5.79413 2.12637C 5.79413 -9.4893e-07 4.6618 -1.18659e-14 4.6618 -1.18659e-14L 4.06174 -1.18659e-14L -5.98659e-15 -1.18659e-14L -5.98659e-15 4.56119L 4.37268 4.56119C 5.12705 4.56119 5.79413 4.25174 5.79413 2.12637Z"/>
</defs>
</svg>
