<svg xmlns="http://www.w3.org/2000/svg" viewBox="0 0 2236.35 1160.424"><defs><style>.a{fill:#fffa72;}.b{fill:#92e2f9;}.c{fill:#27457a;}.d{fill:#335788;}.e{fill:#3f6896;}.f{fill:#4b7aa5;}.g{fill:#568bb3;}.h{fill:#629cc1;}.i{fill:#6eaecf;}.j{fill:#7abfdd;}.k{fill:#86d1eb;}</style></defs><g transform="translate(-311.537 119.2)"><path class="a" d="M739.834,63Q684.269,182.54,760.847,212.89c76.577,30.35,258.662,42.49,334.773,108.328s308.175,14.94,347.864-98.056S1554.633-64,1177.821-64Q801-64,739.838,63h0Z" transform="translate(117.864 16.067)"/><path class="b" d="M312.59,236.414q37.656,334.7,301.136,419.678c263.481,84.981,792.944,118.973,1112.488,303.319,149.541,86.272,353.394,100.956,520.425,59.784,190.328-46.914,333.136-166.022,295.076-334.343-71.541-316.391-153-804.053-1208.076-804.053Q278.551-119.2,312.6,236.414h0Z"/><path class="b" d="M344.055,221.963q17.651,316.767,262.45,397.2c244.8,80.429,744.07,112.6,1036.589,287.07s837.273,39.592,786.569-259.85S2328.068-114.6,1329.516-114.6q-998.565,0-985.451,336.563h0Z" transform="translate(9.419 1.339)"/><path class="c" d="M376.487,207.512q.438,298.837,227.263,374.713c226.825,75.876,696.19,106.226,963.22,270.821S2354.823,890.4,2322.317,607.9,2265.425-110,1323.4-110q-942.043,0-946.9,317.512h0Z" transform="translate(18.905 2.678)"/><path class="d" d="M409.894,193.061q-14.223,280.907,195.277,352.23c209.5,71.323,649.216,99.852,892.164,254.571s738.753,35.11,722.031-230.433S2201.044-105.4,1315.536-105.4q-885.52,0-905.633,298.461h0Z" transform="translate(28.366 4.017)"/><path class="e" d="M444.294,178.611Q417.766,441.587,610.538,508.358c192.772,66.771,603.08,93.479,823.243,238.322s689.948,32.869,686.783-215.724,14.589-631.756-814.4-631.756q-829,0-861.865,279.411h0Z" transform="translate(37.708 5.356)"/><path class="f" d="M479.5,164.16Q442.853,409.206,619.454,471.424c176.6,62.218,557.721,87.105,756.3,222.073s641.415,30.627,649.74-201.016S2067.745-96.2,1295.281-96.2q-772.475,0-815.774,260.36h0Z" transform="translate(47.056 6.695)"/><path class="g" d="M515.368,149.709Q470.65,376.825,631.6,434.491c160.948,57.666,513.09,80.732,691.22,205.824s593.138,28.386,611.02-186.307S1998.827-91.6,1282.885-91.6q-715.953,0-767.509,241.309h0Z" transform="translate(56.499 8.033)"/><path class="h" d="M551.794,135.258q-50.863,209.186,94.923,262.3C792.5,450.671,1115.86,471.915,1274.6,587.132s545.1,26.145,570.718-171.6S1928.417-87,1269-87q-659.43,0-717.2,222.258h0Z" transform="translate(66.102 9.372)"/><path class="i" d="M588.69,120.808q-55.181,191.256,75.905,239.816c131.086,48.561,425.847,67.984,566.2,173.325s497.295,23.9,528.918-156.89S1856.537-82.4,1253.638-82.4Q650.731-82.4,588.7,120.808h0Z" transform="translate(75.913 10.711)"/><path class="j" d="M625.991,106.357Q568.24,279.682,685.071,323.69C801.9,367.7,1068.243,385.3,1191.173,480.766s449.705,21.663,485.683-142.182S1783.2-77.8,1236.826-77.8Q690.441-77.8,626,106.357h0Z" transform="translate(85.968 12.05)"/><path class="k" d="M663.642,91.906Q605,247.3,708.006,286.757c103,39.455,341.094,55.237,447.527,140.827s402.326,19.422,441.07-127.473S1708.435-73.2,1218.579-73.2q-489.862,0-554.932,165.106h0Z" transform="translate(96.296 13.389)"/><path class="b" d="M701.6,77.456q-57.9,137.465,31.69,172.368c89.588,34.9,299.595,48.864,390.429,124.577s355.151,17.181,395.12-112.765S1632.244-68.6,1198.91-68.6q-433.34,0-497.3,146.056h0Z" transform="translate(106.921 14.728)"/></g></svg>