<svg xmlns="http://www.w3.org/2000/svg" viewBox="0 0 2236.346 1160.412"><defs><style>.a{fill:#fffa72;}.b{fill:#c7e1f3;}.c{fill:#b8cfe6;}.d{fill:#a9beda;}.e{fill:#9aadce;}.f{fill:#8b9bc1;}.g{fill:#7d8ab5;}.h{fill:#6e79a9;}.i{fill:#5f679c;}.j{fill:#505690;}.k{fill:#414584;}.l{fill:#323377;}.m{fill:#23226b;}</style></defs><g transform="translate(-311.537 119.2)"><path class="a" d="M739.834,63.005Q684.269,182.54,760.847,212.89c76.577,30.35,258.662,42.49,334.773,108.328s308.174,14.94,347.863-98.057S1554.632-64,1177.821-64Q801-64,739.838,63.005h0Z" transform="translate(117.863 16.067)"/><path class="b" d="M312.59,236.414q37.656,334.7,301.135,419.679c263.48,84.981,792.942,118.973,1112.486,303.32s887.04,41.833,815.5-274.559S2388.709-119.2,1333.637-119.2Q278.551-119.2,312.6,236.414h0Z"/><path class="c" d="M344.055,221.963q17.651,316.767,262.449,397.2c244.8,80.429,744.069,112.6,1036.587,287.07s837.272,39.592,786.568-259.85S2328.064-114.6,1329.514-114.6q-998.563,0-985.449,336.563h0Z" transform="translate(9.418 1.339)"/><path class="d" d="M376.487,207.513q.438,298.837,227.262,374.713c226.824,75.876,696.188,106.226,963.218,270.821S2354.82,890.4,2322.314,607.905,2265.422-110,1323.394-110q-942.041,0-946.9,317.513h0Z" transform="translate(18.905 2.678)"/><path class="e" d="M409.894,193.062Q395.671,473.969,605.171,545.292c209.5,71.323,649.215,99.852,892.163,254.572s738.752,35.11,722.03-230.433S2201.041-105.4,1315.535-105.4q-885.519,0-905.631,298.462h0Z" transform="translate(28.365 4.017)"/><path class="f" d="M444.294,178.611Q417.766,441.588,610.538,508.359c192.772,66.771,603.079,93.479,823.242,238.322s689.946,32.869,686.782-215.725,14.589-631.757-814.4-631.757q-829,0-861.864,279.411h0Z" transform="translate(37.707 5.356)"/><path class="g" d="M479.5,164.16Q442.853,409.207,619.454,471.425c176.6,62.218,557.721,87.105,756.3,222.073s641.414,30.627,649.74-201.016S2067.742-96.2,1295.279-96.2q-772.474,0-815.772,260.36h0Z" transform="translate(47.055 6.695)"/><path class="h" d="M515.368,149.71Q470.65,376.826,631.6,434.492c160.948,57.666,513.089,80.732,691.218,205.824s593.137,28.386,611.019-186.308S1998.824-91.6,1282.883-91.6q-715.951,0-767.508,241.31h0Z" transform="translate(56.499 8.033)"/><path class="i" d="M551.793,135.259q-50.863,209.186,94.922,262.3C792.5,450.671,1115.859,471.916,1274.6,587.133s545.1,26.146,570.717-171.6S1928.415-87,1268.995-87Q609.566-87,551.8,135.259h0Z" transform="translate(66.102 9.372)"/><path class="j" d="M588.69,120.808q-55.181,191.256,75.905,239.817c131.086,48.561,425.846,67.985,566.2,173.325s497.294,23.9,528.917-156.891S1856.535-82.4,1253.637-82.4Q650.73-82.4,588.7,120.808h0Z" transform="translate(75.912 10.711)"/><path class="k" d="M625.991,106.357q-57.75,173.326,59.081,217.334C801.9,367.7,1068.242,385.3,1191.172,480.767s449.7,21.663,485.682-142.182S1783.2-77.8,1236.825-77.8Q690.441-77.8,626,106.357h0Z" transform="translate(85.967 12.05)"/><path class="l" d="M663.642,91.907Q605,247.3,708.006,286.757c103,39.456,341.093,55.237,447.526,140.827s402.326,19.422,441.069-127.474S1708.433-73.2,1218.578-73.2q-489.861,0-554.931,165.107h0Z" transform="translate(96.295 13.389)"/><path class="m" d="M701.6,77.456q-57.9,137.465,31.69,172.368c89.588,34.9,299.594,48.864,390.428,124.578s355.15,17.181,395.119-112.765S1632.242-68.6,1198.909-68.6q-433.339,0-497.3,146.056h0Z" transform="translate(106.92 14.728)"/></g></svg>