<svg xmlns="http://www.w3.org/2000/svg" viewBox="0 0 1682 807"><defs><style>.a,.b{fill:#333;}.b{stroke:#707070;}.c{stroke:none;}.d{fill:none;}</style></defs><g transform="translate(-96 -98)"><circle class="a" cx="5.5" cy="5.5" r="5.5" transform="translate(286 282)"/><circle class="a" cx="8" cy="8" r="8" transform="translate(241 347)"/><circle class="a" cx="5" cy="5" r="5" transform="translate(187 248)"/><circle class="a" cx="4" cy="4" r="4" transform="translate(241 153)"/><circle class="a" cx="2" cy="2" r="2" transform="translate(363 135)"/><circle class="a" cx="6.5" cy="6.5" r="6.5" transform="translate(417 225)"/><circle class="a" cx="9.5" cy="9.5" r="9.5" transform="translate(467 363)"/><circle class="a" cx="13.5" cy="13.5" r="13.5" transform="translate(511 517)"/><circle class="a" cx="2" cy="2" r="2" transform="translate(688 117)"/><circle class="a" cx="2" cy="2" r="2" transform="translate(614 117)"/><circle class="a" cx="4" cy="4" r="4" transform="translate(908 170)"/><circle class="a" cx="9.5" cy="9.5" r="9.5" transform="translate(1468 321)"/><g class="b" transform="translate(1468 178)"><circle class="c" cx="0.5" cy="0.5" r="0.5"/><circle class="d" cx="0.5" cy="0.5"/></g><circle class="a" cx="9" cy="9" r="9" transform="translate(1514 121)"/><circle class="a" cx="3" cy="3" r="3" transform="translate(1662 98)"/><circle class="a" cx="8.5" cy="8.5" r="8.5" transform="translate(1697 437)"/><circle class="a" cx="2" cy="2" r="2" transform="translate(1314 117)"/><circle class="a" cx="4.5" cy="4.5" r="4.5" transform="translate(1478 446)"/><circle class="a" cx="10" cy="10" r="10" transform="translate(1257 728)"/><g class="b" transform="translate(1314 598)"><circle class="c" cx="0.5" cy="0.5" r="0.5"/><circle class="d" cx="0.5" cy="0.5"/></g><circle class="a" cx="10" cy="10" r="10" transform="translate(1609 728)"/><circle class="a" cx="11.5" cy="11.5" r="11.5" transform="translate(1755 882)"/><circle class="a" cx="14" cy="14" r="14" transform="translate(1299 570)"/><circle class="a" cx="2.5" cy="2.5" r="2.5" transform="translate(192 776)"/><circle class="a" cx="6" cy="6" r="6" transform="translate(367 667)"/><circle class="a" cx="2.5" cy="2.5" r="2.5" transform="translate(663 776)"/><circle class="a" cx="9" cy="9" r="9" transform="translate(268 599)"/><circle class="a" cx="7" cy="7" r="7" transform="translate(96 556)"/></g></svg>