<svg width="50" height="50" viewBox="0 0 50 50" version="1.1" xmlns="http://www.w3.org/2000/svg" xmlns:xlink="http://www.w3.org/1999/xlink">
<title>if_42-dribbble_104457</title>
<desc>Created using Figma</desc>
<g id="Canvas" transform="translate(-356 2562)">
<g id="if_42-dribbble_104457">
<g id="Group">
<g id="Vector">
<use xlink:href="#path0_fill" transform="translate(365.362 -2540.04)" fill="#FFFFFF"/>
</g>
<g id="Vector">
<use xlink:href="#path1_fill" transform="translate(365.689 -2551.18)" fill="#FFFFFF"/>
</g>
<g id="Vector">
<use xlink:href="#path2_fill" transform="translate(377.027 -2552.64)" fill="#FFFFFF"/>
</g>
<g id="Vector">
<use xlink:href="#path3_fill" transform="translate(376.919 -2552.19)" fill="#FFFFFF"/>
</g>
<g id="Vector">
<use xlink:href="#path4_fill" transform="translate(370.902 -2525.61)" fill="#FFFFFF"/>
</g>
<g id="Vector">
<use xlink:href="#path5_fill" transform="translate(383.908 -2547.07)" fill="#FFFFFF"/>
</g>
<g id="Vector">
<use xlink:href="#path6_fill" transform="translate(371.246 -2534.91)" fill="#FFFFFF"/>
</g>
<g id="Vector">
<use xlink:href="#path7_fill" transform="translate(356 -2562)" fill="#FFFFFF"/>
</g>
<g id="Vector">
<use xlink:href="#path8_fill" transform="translate(386.183 -2535.86)" fill="#FFFFFF"/>
</g>
</g>
</g>
</g>
<defs>
<path id="path0_fill" d="M 16.319 2.778C 16.518 2.712 16.719 2.653 16.921 2.594C 16.538 1.727 16.12 0.858 15.683 2.89917e-07C 7.824 2.354 0.283 2.184 0.0130001 2.174C 0.00800012 2.338 -3.66211e-07 2.496 -3.66211e-07 2.66C -3.66211e-07 6.582 1.479 10.156 3.911 12.859C 3.909 12.855 3.905 12.851 3.905 12.851C 3.905 12.851 8.083 5.442 16.319 2.778Z"/>
<path id="path1_fill" d="M 14.09 8.795C 11.449 4.101 8.627 0.271 8.424 2.36511e-07C 4.167 2.01 0.99 5.932 2.5177e-07 10.659C 0.402 10.663 6.762 10.743 14.09 8.795Z"/>
<path id="path2_fill" d="M 13.678 3.807C 10.99 1.438 7.461 4.57764e-07 3.598 4.57764e-07C 2.358 4.57764e-07 1.155 0.15 5.49316e-07 0.428C 0.230001 0.735 3.098 4.539 5.707 9.333C 11.467 7.172 13.641 3.863 13.678 3.807Z"/>
<path id="path3_fill" d="M 0.0509994 2.97546e-07C 0.0329994 0.0020003 0.0180007 0.00400038 7.47681e-07 0.0120004C 0.0290007 0.00400038 0.0469997 2.97546e-07 0.0469997 2.97546e-07L 0.0509994 2.97546e-07Z"/>
<path id="path4_fill" d="M 0.341 0.268L 0.344 0.261999C 0.231 0.173999 0.111001 0.0939982 5.49316e-07 -1.83105e-06C 0.203001 0.164998 0.341 0.268 0.341 0.268Z"/>
<path id="path5_fill" d="M -8.39233e-07 6.04C 0.354999 6.769 0.697 7.509 1.016 8.253C 1.127 8.521 1.237 8.782 1.344 9.044C 6.588 8.384 11.754 9.495 11.975 9.54C 11.94 5.921 10.645 2.601 8.504 4.42505e-07C 8.474 0.0410004 6.027 3.579 -8.39233e-07 6.04Z"/>
<path id="path6_fill" d="M 11.976 0.0339999C 2.968 3.175 0.0280004 9.503 4.11987e-07 9.563C 2.589 11.584 5.839 12.799 9.378 12.799C 11.491 12.799 13.505 12.369 15.337 11.59C 15.11 10.256 14.224 5.582 12.075 -5.18799e-07C 12.043 0.0129995 12.01 0.0229999 11.976 0.0339999Z"/>
<path id="path7_fill" d="M 24.625 6.48499e-08C 11.025 6.48499e-08 -1.16348e-07 11.027 -1.16348e-07 24.625C -1.16348e-07 38.225 11.024 49.248 24.625 49.248C 38.225 49.248 49.25 38.225 49.25 24.625C 49.25 11.027 38.224 6.48499e-08 24.625 6.48499e-08ZM 41.091 31.582C 40.644 32.643 40.089 33.664 39.443 34.617C 38.804 35.564 38.07 36.453 37.261 37.262C 36.452 38.069 35.564 38.803 34.618 39.444C 33.663 40.089 32.639 40.643 31.581 41.092C 30.501 41.547 29.372 41.897 28.224 42.133C 27.046 42.375 25.835 42.498 24.624 42.498C 23.413 42.498 22.202 42.375 21.024 42.133C 19.876 41.897 18.745 41.547 17.667 41.092C 16.607 40.643 15.584 40.088 14.629 39.444C 13.684 38.803 12.794 38.069 11.986 37.262C 11.177 36.453 10.443 35.565 9.804 34.617C 9.159 33.664 8.605 32.642 8.156 31.582C 7.7 30.502 7.349 29.373 7.113 28.223C 6.874 27.045 6.752 25.836 6.752 24.625C 6.752 23.414 6.874 22.203 7.113 21.027C 7.349 19.877 7.7 18.746 8.156 17.668C 8.605 16.607 9.16 15.584 9.804 14.63C 10.443 13.683 11.177 12.796 11.986 11.985C 12.794 11.178 13.683 10.446 14.629 9.805C 15.584 9.159 16.607 8.604 17.667 8.155C 18.745 7.698 19.876 7.348 21.024 7.114C 22.202 6.874 23.413 6.751 24.624 6.751C 25.835 6.751 27.046 6.874 28.224 7.114C 29.372 7.348 30.501 7.698 31.581 8.155C 32.64 8.604 33.663 9.159 34.618 9.805C 35.563 10.446 36.452 11.178 37.261 11.985C 38.07 12.796 38.804 13.682 39.443 14.63C 40.089 15.583 40.644 16.607 41.091 17.668C 41.548 18.746 41.898 19.877 42.132 21.027C 42.374 22.203 42.497 23.414 42.497 24.625C 42.497 25.836 42.374 27.045 42.132 28.223C 41.898 29.373 41.549 30.502 41.091 31.582Z"/>
<path id="path8_fill" d="M -1.2207e-06 0.246052C 2.002 5.74805 2.814 10.2281 2.971 11.1481C 6.397 8.83605 8.832 5.16405 9.51 0.910051C 9.196 0.809051 4.926 -0.542948 -1.2207e-06 0.246052Z"/>
</defs>
</svg>
