<svg xmlns="http://www.w3.org/2000/svg" viewBox="0 0 24 24"><defs><style>.a{fill:#ea4c89;}</style></defs><path class="a" d="M12,24A12,12,0,1,1,24,12,12.016,12.016,0,0,1,12,24ZM22.12,13.642a15.033,15.033,0,0,0-6.384-.438,44.328,44.328,0,0,1,1.992,7.308,10.28,10.28,0,0,0,4.4-6.87ZM16,21.45a42.642,42.642,0,0,0-2.19-7.77l-.066.02c-5.79,2.015-7.86,6.025-8.04,6.4A10.223,10.223,0,0,0,16,21.452ZM4.385,18.87a16.254,16.254,0,0,1,8.332-6.765c.135-.045.27-.084.4-.12-.26-.585-.54-1.167-.832-1.74A37.78,37.78,0,0,1,1.756,11.7l0,.312a10.218,10.218,0,0,0,2.634,6.855ZM1.965,9.915a38.06,38.06,0,0,0,9.477-1.248,65.473,65.473,0,0,0-3.8-5.928,10.275,10.275,0,0,0-5.676,7.17ZM9.6,2.052a54.693,54.693,0,0,1,3.822,6A11.565,11.565,0,0,0,18.8,4.35,10.227,10.227,0,0,0,9.6,2.049ZM19.935,5.535a13.7,13.7,0,0,1-5.724,4.04c.24.49.47.985.68,1.486.08.18.15.36.22.53a24,24,0,0,1,7.14.33,10.144,10.144,0,0,0-2.31-6.38Z"/></svg>
