<svg width="39" height="50" viewBox="0 0 39 50" version="1.1" xmlns="http://www.w3.org/2000/svg" xmlns:xlink="http://www.w3.org/1999/xlink">
<title>dribbble</title>
<desc>Created using Figma</desc>
<g id="Canvas" transform="translate(-5013 -426)">
<g id="dribbble">
<g id="Canvas">
<g id="if 42 dribbble 104457">
<g id="Group">
<g id="Vector">
<g id="Vector">
<use xlink:href="#path0_fill" transform="matrix(1 3.54386e-17 -2.17382e-17 1 5020.61 447.851)"/>
</g>
</g>
<g id="Vector">
<g id="Vector">
<use xlink:href="#path1_fill" transform="matrix(1 3.54386e-17 -2.17382e-17 1 5020.86 436.766)"/>
</g>
</g>
<g id="Vector">
<g id="Vector">
<use xlink:href="#path2_fill" transform="matrix(1 3.54386e-17 -2.17382e-17 1 5029.7 435.314)"/>
</g>
</g>
<g id="Vector">
<g id="Vector">
<use xlink:href="#path3_fill" transform="matrix(1 3.54386e-17 -2.17382e-17 1 5029.61 435.761)"/>
</g>
</g>
<g id="Vector">
<g id="Vector">
<use xlink:href="#path4_fill" transform="matrix(1 3.54386e-17 -2.17382e-17 1 5024.92 462.209)"/>
</g>
</g>
<g id="Vector">
<g id="Vector">
<use xlink:href="#path5_fill" transform="matrix(1 3.54386e-17 -2.17382e-17 1 5035.06 440.856)"/>
</g>
</g>
<g id="Vector">
<g id="Vector">
<use xlink:href="#path6_fill" transform="matrix(1 3.54386e-17 -2.17382e-17 1 5025.19 452.955)"/>
</g>
</g>
<g id="Vector">
<g id="Vector">
<use xlink:href="#path7_fill" transform="matrix(1 3.54386e-17 -2.17382e-17 1 5013.31 426)"/>
</g>
</g>
<g id="Vector">
<g id="Vector">
<use xlink:href="#path8_fill" transform="matrix(1 3.54386e-17 -2.17382e-17 1 5036.83 452.01)"/>
</g>
</g>
</g>
</g>
</g>
</g>
</g>
<defs>
<path id="path0_fill" d="M 12.7175 2.76418C 12.8726 2.69851 13.0292 2.6398 13.1866 2.58109C 12.8881 1.71841 12.5624 0.853731 12.2218 1.12307e-14C 6.09728 2.34229 0.220544 2.17313 0.0101313 2.16318C 0.00623482 2.32637 1.92749e-15 2.48358 1.92749e-15 2.64677C 1.92749e-15 6.54925 1.15259 10.1055 3.04786 12.795C 3.0463 12.791 3.04319 12.7871 3.04319 12.7871C 3.04319 12.7871 6.29912 5.41493 12.7175 2.76418Z"/>
<path id="path1_fill" d="M 10.9804 8.75124C 8.92226 4.0806 6.72306 0.269652 6.56486 -7.66446e-16C 3.24736 2 0.771511 5.90249 -7.99154e-15 10.606C 0.31328 10.61 5.26966 10.6896 10.9804 8.75124Z"/>
<path id="path2_fill" d="M 10.6593 3.78806C 8.56456 1.43085 5.81439 2.69025e-15 2.80394 2.69025e-15C 1.8376 2.69025e-15 0.900097 0.149253 -1.1924e-14 0.42587C 0.17924 0.731343 2.41429 4.51642 4.44749 9.28657C 8.93629 7.13632 10.6305 3.84378 10.6593 3.78806Z"/>
<path id="path3_fill" d="M 0.0397435 -5.02099e-15C 0.025716 0.00199005 0.0140274 0.00398018 -1.12462e-14 0.0119404C 0.0225998 0.00398018 0.0366265 -5.02099e-15 0.0366265 -5.02099e-15L 0.0397435 -5.02099e-15Z"/>
<path id="path4_fill" d="M 0.265743 0.266668L 0.26808 0.260697C 0.180019 0.173135 0.0865032 0.0935324 -1.1924e-14 1.4515e-14C 0.158199 0.164179 0.265743 0.266668 0.265743 0.266668Z"/>
<path id="path5_fill" d="M 3.12806e-15 6.00995C 0.276653 6.73532 0.543176 7.47164 0.791774 8.21194C 0.878277 8.47861 0.964001 8.73831 1.04739 8.99901C 5.13406 8.34229 9.15995 9.44776 9.33218 9.49254C 9.3049 5.89154 8.2957 2.58806 6.62721 1.21275e-14C 6.60383 0.040796 4.69687 3.56119 3.12806e-15 6.00995Z"/>
<path id="path6_fill" d="M 9.33295 0.0338313C 2.31298 3.1592 0.0218205 9.45572 2.1316e-15 9.51542C 2.01762 11.5264 4.55036 12.7353 7.30832 12.7353C 8.95499 12.7353 10.5245 12.3075 11.9522 11.5323C 11.7753 10.205 11.0848 5.55423 9.4101 -2.6716e-14C 9.38517 0.0129353 9.35945 0.022886 9.33295 0.0338313Z"/>
<path id="path7_fill" d="M 19.1904 -3.25889e-16C 8.59184 -3.25889e-16 1.63442e-15 10.9721 1.63442e-15 24.5025C 1.63442e-15 38.0348 8.59106 49.003 19.1904 49.003C 29.7889 49.003 38.3808 38.0348 38.3808 24.5025C 38.3808 10.9721 29.7881 -3.25889e-16 19.1904 -3.25889e-16ZM 32.0224 31.4249C 31.6741 32.4806 31.2416 33.4965 30.7381 34.4448C 30.2401 35.3871 29.6681 36.2716 29.0377 37.0766C 28.4072 37.8796 27.7152 38.61 26.978 39.2478C 26.2337 39.8896 25.4357 40.4408 24.6112 40.8876C 23.7696 41.3403 22.8897 41.6886 21.9951 41.9234C 21.0771 42.1642 20.1333 42.2866 19.1896 42.2866C 18.2459 42.2866 17.3021 42.1642 16.3841 41.9234C 15.4895 41.6886 14.6081 41.3403 13.768 40.8876C 12.9419 40.4408 12.1447 39.8886 11.4004 39.2478C 10.664 38.61 9.97043 37.8796 9.34075 37.0766C 8.71029 36.2716 8.13828 35.3881 7.6403 34.4448C 7.13765 33.4965 6.70592 32.4796 6.35601 31.4249C 6.00065 30.3503 5.72711 29.2269 5.54319 28.0826C 5.35694 26.9104 5.26187 25.7075 5.26187 24.5025C 5.26187 23.2975 5.35694 22.0925 5.54319 20.9224C 5.72711 19.7781 6.00065 18.6527 6.35601 17.5801C 6.70592 16.5244 7.13843 15.5065 7.6403 14.5572C 8.13828 13.6149 8.71029 12.7323 9.34075 11.9254C 9.97043 11.1224 10.6632 10.394 11.4004 9.75622C 12.1447 9.11343 12.9419 8.56119 13.768 8.11443C 14.6081 7.6597 15.4895 7.31144 16.3841 7.07861C 17.3021 6.8398 18.2459 6.71741 19.1896 6.71741C 20.1333 6.71741 21.0771 6.8398 21.9951 7.07861C 22.8897 7.31144 23.7696 7.6597 24.6112 8.11443C 25.4365 8.56119 26.2337 9.11343 26.978 9.75622C 27.7144 10.394 28.4072 11.1224 29.0377 11.9254C 29.6681 12.7323 30.2401 13.6139 30.7381 14.5572C 31.2416 15.5055 31.6741 16.5244 32.0224 17.5801C 32.3786 18.6527 32.6513 19.7781 32.8337 20.9224C 33.0223 22.0925 33.1181 23.2975 33.1181 24.5025C 33.1181 25.7075 33.0223 26.9104 32.8337 28.0826C 32.6513 29.2269 32.3793 30.3503 32.0224 31.4249Z"/>
<path id="path8_fill" d="M -2.19534e-14 0.244828C 1.56017 5.71945 2.19296 10.1772 2.31532 11.0926C 4.98521 8.79209 6.88282 5.13836 7.41119 0.905523C 7.16649 0.805026 3.83886 -0.540247 -2.19534e-14 0.244828Z"/>
</defs>
</svg>
