<svg width="60" height="60" viewBox="0 0 60 60" version="1.1" xmlns="http://www.w3.org/2000/svg" xmlns:xlink="http://www.w3.org/1999/xlink">
<title>if_linkedin_circle_color_107178</title>
<desc>Created using Figma</desc>
<g id="Canvas" transform="translate(-659 2333)">
<g id="if_linkedin_circle_color_107178">
<g id="Vector">
<use xlink:href="#path0_fill" transform="translate(659 -2333)" fill="#FFFFFF"/>
</g>
</g>
</g>
<defs>
<path id="path0_fill" fill-rule="evenodd" d="M 46.837 44.137L 46.837 32.425C 46.837 26.15 43.487 23.23 39.021 23.23C 35.417 23.23 33.802 25.213 32.902 26.604L 32.902 23.71L 26.112 23.71C 26.202 25.627 26.112 44.137 26.112 44.137L 32.902 44.137L 32.902 32.729C 32.902 32.12 32.946 31.51 33.126 31.074C 33.616 29.854 34.733 28.591 36.608 28.591C 39.066 28.591 40.048 30.464 40.048 33.209L 40.048 44.138L 46.837 44.138L 46.837 44.137ZM 18.959 20.922C 21.326 20.922 22.801 19.352 22.801 17.391C 22.757 15.388 21.326 13.863 19.004 13.863C 16.682 13.863 15.163 15.387 15.163 17.391C 15.163 19.352 16.637 20.922 18.916 20.922L 18.959 20.922ZM 30 60C 13.432 60 0 46.568 0 30C 0 13.431 13.432 0 30 0C 46.568 0 60 13.431 60 30C 60 46.568 46.568 60 30 60ZM 22.354 44.137L 22.354 23.71L 15.565 23.71L 15.565 44.137L 22.354 44.137Z"/>
</defs>
</svg>
