<svg width="39" height="50" viewBox="0 0 39 50" version="1.1" xmlns="http://www.w3.org/2000/svg" xmlns:xlink="http://www.w3.org/1999/xlink">
<title>linkedin</title>
<desc>Created using Figma</desc>
<g id="Canvas" transform="translate(-5114 -426)">
<g id="linkedin">
<g id="Canvas">
<g id="if linkedin circle color 107178">
<g id="Vector">
<g id="Vector">
<use xlink:href="#path0_fill" transform="matrix(1 3.54386e-17 -2.17382e-17 1 5114.62 426.995)"/>
</g>
</g>
</g>
</g>
</g>
</g>
<defs>
<path id="path0_fill" fill-rule="evenodd" d="M 29.9607 36.0489L 29.9607 26.4831C 29.9607 21.358 27.8177 18.9731 24.9609 18.9731C 22.6555 18.9731 21.6224 20.5927 21.0467 21.7288L 21.0467 19.3651L 16.7033 19.3651C 16.7609 20.9308 16.7033 36.0489 16.7033 36.0489L 21.0467 36.0489L 21.0467 26.7314C 21.0467 26.234 21.0749 25.7358 21.19 25.3797C 21.5035 24.3832 22.218 23.3517 23.4174 23.3517C 24.9897 23.3517 25.6179 24.8815 25.6179 27.1234L 25.6179 36.0497L 29.9607 36.0497L 29.9607 36.0489ZM 12.1277 17.088C 13.6418 17.088 14.5853 15.8057 14.5853 14.2041C 14.5572 12.5681 13.6418 11.3226 12.1565 11.3226C 10.6711 11.3226 9.69946 12.5673 9.69946 14.2041C 9.69946 15.8057 10.6423 17.088 12.1002 17.088L 12.1277 17.088ZM 19.1904 49.005C 8.59217 49.005 0 38.0344 0 24.5025C 0 10.9698 8.59217 0 19.1904 0C 29.7886 0 38.3808 10.9698 38.3808 24.5025C 38.3808 38.0344 29.7886 49.005 19.1904 49.005ZM 14.2994 36.0489L 14.2994 19.3651L 9.95661 19.3651L 9.95661 36.0489L 14.2994 36.0489Z"/>
</defs>
</svg>
